<svg xmlns="http://www.w3.org/2000/svg" width="14" height="14" viewBox="0 0 14 14"><g><g><path fill="#8c99a5" d="M6.158 4.028a.765.765 0 1 0 1.529-.002.765.765 0 0 0-1.53.002zm.765 6.5a.573.573 0 0 0 .573-.574v-3.44a.572.572 0 1 0-1.147 0v3.44c0 .317.258.574.574.574zm-.002-8.794a5.168 5.168 0 0 1 5.163 5.16 5.169 5.169 0 0 1-5.163 5.163 5.168 5.168 0 0 1-5.16-5.162 5.168 5.168 0 0 1 5.16-5.161zm0 11.47c3.48 0 6.311-2.83 6.311-6.31A6.318 6.318 0 0 0 6.922.587 6.315 6.315 0 0 0 .613 6.895c0 3.48 2.83 6.309 6.307 6.309z"/></g></g></svg>