<svg xmlns="http://www.w3.org/2000/svg" width="56" height="55" viewBox="0 0 56 55"><defs><clipPath id="h0u8a"><path fill="#fff" d="M1 27.5C1 12.312 13.312 0 28.5 0S56 12.312 56 27.5 43.688 55 28.5 55 1 42.688 1 27.5z"/></clipPath></defs><g><g><path fill="#27374e" d="M1 27.5C1 12.312 13.312 0 28.5 0S56 12.312 56 27.5 43.688 55 28.5 55 1 42.688 1 27.5z"/><path fill="none" stroke="#2c3e50" stroke-miterlimit="20" stroke-width="2" d="M1 27.5C1 12.312 13.312 0 28.5 0S56 12.312 56 27.5 43.688 55 28.5 55 1 42.688 1 27.5z" clip-path="url(&quot;#h0u8a&quot;)"/></g><g><path fill="#fff" d="M19.31 33.205zm-1.83-1.355c.345-.612.682-1.215 1.008-1.798l.002-.003.009-.016c.529-.946 1.028-1.839 1.538-2.733.323.188.644.382.954.57.754.455 1.466.885 2.222 1.25 1.893.912 3.817 1.374 5.717 1.374a12.52 12.52 0 0 0 3.63-.55c.315-.096.641-.28.999-.565.58-.428.592-1.096.5-1.582-.125-.56-.575-.698-1-.758l-2.261-.292-.015-.002h-.003l-.06-.008h-.006l-2.188-.282c-.507-.073-1.02-.131-1.517-.188h-.003a37.49 37.49 0 0 1-2.198-.296 12.564 12.564 0 0 1-2.155-.557 9.474 9.474 0 0 1-1.115-.468 6.203 6.203 0 0 1-1.007-.624 4.86 4.86 0 0 1-.85-.831 4.718 4.718 0 0 1-.643-1.09 8.202 8.202 0 0 1-.441-1.316 7.934 7.934 0 0 1-.209-1.37 7.384 7.384 0 0 1 .04-1.377c.059-.462.162-.913.308-1.34a6.214 6.214 0 0 1 1.223-2.115 6.879 6.879 0 0 1 2.175-1.626c.907-.446 1.86-.763 2.916-.97A16.55 16.55 0 0 1 28.086 12c1.291 0 2.432.079 3.488.241 1.221.188 2.328.485 3.383.907 1.419.549 2.751 1.35 4.075 2.449l-.09.148-.03.05-.002.003a2473.019 2473.019 0 0 0-2.495 4.133 39.842 39.842 0 0 1-.928-.549c-.513-.31-.998-.602-1.508-.86-1.652-.794-3.472-1.18-5.565-1.18-.53 0-1.09.025-1.666.075-.659.068-1.311.249-1.918.434-.283.11-.581.35-.778.628-.21.293-.278.647-.188.972a.96.96 0 0 0 .607.653c.604.204 1.237.312 1.778.39.824.105 1.66.204 2.47.3h.007c1.211.143 2.463.29 3.694.46.683.092 1.3.22 1.885.39.65.188 1.242.422 1.81.715a6.742 6.742 0 0 1 1.51 1.043c.426.395.782.846 1.06 1.34.276.493.483 1.042.613 1.633.13.589.188 1.235.173 1.921a7.677 7.677 0 0 1-.264 1.9l-19.897 3.01a18.895 18.895 0 0 1-1.83-1.356zm15.65 4.825c.069-.299.18-.534.331-.698a.799.799 0 0 1 .6-.274c.174 0 .311.063.407.186.107.14.15.362.126.662l-1.464.124zm-8.357.706c.07-.299.181-.534.332-.698a.8.8 0 0 1 .598-.273c.176 0 .313.062.409.185.107.14.15.363.126.662l-1.465.124zm11.07-.157c-.011 0-.023 0-.035.002a.391.391 0 0 0-.254.124.452.452 0 0 0-.13.258.664.664 0 0 0 .084.428c.078.138.215.248.406.327.148.06.326.092.53.092.062 0 .128-.003.195-.009.303-.025.57-.093.793-.2.224-.108.405-.255.537-.437.133-.184.218-.4.252-.642a.683.683 0 0 0-.061-.424.749.749 0 0 0-.314-.301 1.974 1.974 0 0 0-.58-.19 8.957 8.957 0 0 1-.476-.1.646.646 0 0 1-.265-.125c-.062-.053-.087-.127-.074-.22a.407.407 0 0 1 .181-.27.75.75 0 0 1 .378-.132c.03-.002.06-.004.087-.004.1 0 .18.018.24.053a.536.536 0 0 1 .185.191c.06.097.117.17.166.217.044.041.101.062.17.062.01 0 .02 0 .032-.002a.432.432 0 0 0 .408-.378.473.473 0 0 0-.048-.279.642.642 0 0 0-.216-.246c-.1-.07-.23-.124-.39-.157a1.66 1.66 0 0 0-.342-.033c-.066 0-.137.003-.21.01-.265.022-.5.09-.702.2a1.401 1.401 0 0 0-.482.414 1.18 1.18 0 0 0-.217.518c-.028.198 0 .363.085.491a.819.819 0 0 0 .371.296c.164.069.38.13.645.181.234.044.403.098.502.16.097.065.134.172.112.33-.015.102-.08.198-.195.285a.773.773 0 0 1-.414.152c-.039.004-.077.005-.112.005a.614.614 0 0 1-.342-.083.679.679 0 0 1-.247-.329.537.537 0 0 0-.103-.181c-.033-.036-.084-.054-.15-.054zm-1.579-2.147a1.927 1.927 0 0 0-.84.192c-.21.102-.397.24-.556.412-.16.173-.291.377-.392.603-.102.23-.173.479-.21.74-.08.556.002.989.242 1.288.21.262.53.395.95.395.06 0 .125-.003.19-.008a1.95 1.95 0 0 0 1.086-.43c.127-.107.23-.218.303-.33a.768.768 0 0 0 .126-.29c.013-.09-.003-.159-.047-.204a.214.214 0 0 0-.16-.06l-.031.002a.31.31 0 0 0-.185.074c-.115.112-.21.202-.282.268a2.284 2.284 0 0 1-.231.189 1.032 1.032 0 0 1-.52.196.575.575 0 0 1-.378-.084.583.583 0 0 1-.237-.323 1.174 1.174 0 0 1-.035-.526l1.581-.133c.21-.018.379-.065.505-.14.125-.077.205-.229.237-.45a1.45 1.45 0 0 0-.068-.696c-.08-.223-.223-.4-.427-.526a1.156 1.156 0 0 0-.62-.159zm-6.281.533a.427.427 0 0 0-.33.154.734.734 0 0 0-.16.39l-.362 2.542c-.026.184-.007.322.058.41a.284.284 0 0 0 .242.117.47.47 0 0 0 .357-.168.809.809 0 0 0 .174-.429l.17-1.2c.054-.373.137-.665.25-.87a.627.627 0 0 1 .224-.242.77.77 0 0 1 .39-.104c.105 0 .18.032.224.096.05.073.073.172.069.295a5.022 5.022 0 0 1-.053.52l-.202 1.415c-.027.185-.008.323.054.41a.279.279 0 0 0 .24.117l.037-.002a.48.48 0 0 0 .324-.166c.09-.1.149-.244.175-.43l.168-1.18c.054-.38.122-.65.202-.802a.961.961 0 0 1 .264-.3.626.626 0 0 1 .37-.132c.105 0 .182.032.228.094.053.073.08.167.079.28a3.688 3.688 0 0 1-.044.457l-.212 1.494c-.027.184-.007.322.057.41a.284.284 0 0 0 .241.117.48.48 0 0 0 .362-.167c.09-.1.15-.245.176-.43l.247-1.736c.049-.343.05-.595.005-.749a.636.636 0 0 0-.3-.38.87.87 0 0 0-.431-.1 1.243 1.243 0 0 0-.656.181c-.169.102-.336.25-.496.442a.715.715 0 0 0-.303-.373.79.79 0 0 0-.397-.094 1.304 1.304 0 0 0-.66.18 2 2 0 0 0-.507.445l.012-.085c.02-.142 0-.252-.063-.327a.278.278 0 0 0-.223-.1zm-2.076.174a1.934 1.934 0 0 0-.84.192c-.209.1-.395.239-.555.41a2.236 2.236 0 0 0-.392.605c-.103.229-.173.478-.21.74-.08.555.002.988.242 1.287.21.263.53.396.95.396.06 0 .125-.003.19-.009a1.946 1.946 0 0 0 1.085-.43c.127-.106.23-.217.304-.33a.764.764 0 0 0 .126-.289c.013-.09-.003-.16-.047-.204a.213.213 0 0 0-.16-.06l-.031.001a.309.309 0 0 0-.185.074c-.12.116-.212.204-.282.269a2.344 2.344 0 0 1-.232.188 1.028 1.028 0 0 1-.518.197.576.576 0 0 1-.378-.084.585.585 0 0 1-.238-.324 1.168 1.168 0 0 1-.035-.525l1.58-.134c.21-.018.38-.065.506-.14.125-.077.205-.228.236-.45.034-.24.012-.474-.067-.696a1.002 1.002 0 0 0-.427-.526 1.16 1.16 0 0 0-.622-.158zm-4.377-.652l-.041.001a.45.45 0 0 0-.314.16.799.799 0 0 0-.162.414l-.509 3.57c-.027.193-.009.333.056.416.048.06.123.092.221.092l.045-.002a.46.46 0 0 0 .319-.165.786.786 0 0 0 .165-.41l.168-1.175c.047-.336.103-.576.166-.712.078-.16.182-.29.311-.391a.768.768 0 0 1 .476-.172c.176 0 .29.066.338.197.055.145.062.362.021.645l-.213 1.501c-.028.194-.01.334.056.416.048.061.122.092.221.092.015 0 .03 0 .046-.002a.463.463 0 0 0 .314-.161.775.775 0 0 0 .169-.413l.242-1.703c.024-.169.036-.32.035-.45a.91.91 0 0 0-.065-.348.709.709 0 0 0-.314-.385.849.849 0 0 0-.421-.101 1.417 1.417 0 0 0-.496.093 1.38 1.38 0 0 0-.347.198c-.108.084-.221.193-.345.335l.147-1.033c.025-.176.008-.309-.05-.394-.053-.075-.133-.113-.239-.113zm-2.609 1.953l-.242 1.706c-.04.275-.05.495-.034.654a.484.484 0 0 0 .2.367c.092.065.229.098.407.098.046 0 .095-.002.146-.007.266-.022.478-.078.63-.166.15-.087.238-.203.258-.346.012-.084-.004-.154-.047-.206a.182.182 0 0 0-.165-.072 1.077 1.077 0 0 0-.192.044.982.982 0 0 1-.232.045c-.068 0-.115-.019-.143-.055a.282.282 0 0 1-.045-.177c.002-.071.012-.176.033-.32l.232-1.633.15-.013a.88.88 0 0 0 .38-.102.343.343 0 0 0 .165-.262c.013-.092-.007-.166-.059-.22-.043-.047-.11-.07-.2-.07-.015 0-.032 0-.048.002l-.296.025.061-.432c.022-.154.03-.266.027-.345a.3.3 0 0 0-.075-.199.302.302 0 0 0-.259-.103.43.43 0 0 0-.206.073.54.54 0 0 0-.157.16.67.67 0 0 0-.088.215 4.45 4.45 0 0 0-.058.338l-.051.361-.09.008a.494.494 0 0 0-.291.112.388.388 0 0 0-.13.238c-.013.093.007.168.06.223.044.047.11.07.203.07a.62.62 0 0 0 .05-.002l.106-.009zm-2.92 4.472l2.044-6.834 23.415-2.616-2.65 7.998L16 41.557z"/></g></g></svg>